<?xml version="1.0" standalone="no"?>
<!DOCTYPE svg PUBLIC "-//W3C//DTD SVG 20010904//EN"
 "http://www.w3.org/TR/2001/REC-SVG-20010904/DTD/svg10.dtd">
<svg version="1.0" xmlns="http://www.w3.org/2000/svg"
 width="512.000000pt" height="512.000000pt" viewBox="0 0 512.000000 512.000000"
 preserveAspectRatio="xMidYMid meet">
<metadata>
Created by potrace 1.14, written by Peter Selinger 2001-2017
</metadata>
<g transform="translate(0.000000,512.000000) scale(0.100000,-0.100000)"
fill="#000000" stroke="none">
<path d="M4076 4662 c-3 -5 -23 -8 -46 -6 -22 1 -42 -2 -45 -7 -4 -5 2 -6 12
-2 15 5 16 3 6 -7 -10 -11 -16 -10 -33 5 -18 16 -20 17 -14 2 5 -14 -1 -17
-41 -17 -28 0 -44 -4 -40 -10 3 -5 1 -10 -4 -10 -6 0 -11 5 -11 11 0 5 -5 7
-10 4 -6 -4 -8 -11 -5 -16 9 -13 -9 -11 -24 4 -8 6 -11 8 -9 2 3 -5 -1 -17
-10 -25 -14 -13 -15 -13 -10 1 5 12 1 15 -18 11 -13 -2 -27 -8 -30 -13 -3 -5
3 -6 13 -3 14 5 15 4 4 -4 -8 -6 -21 -8 -29 -4 -11 4 -13 1 -7 -7 6 -10 3 -11
-14 -2 -18 10 -21 9 -21 -6 0 -15 -2 -16 -10 -3 -8 13 -10 12 -10 -4 0 -16 -2
-17 -17 -5 -9 8 -14 9 -10 3 4 -7 0 -14 -8 -18 -8 -3 -15 -1 -15 5 0 6 -5 7
-10 4 -6 -4 -8 -10 -5 -15 7 -11 -25 -23 -57 -21 -18 2 -30 -4 -38 -18 -8 -17
-15 -19 -29 -11 -15 7 -18 6 -17 -8 1 -12 -6 -17 -26 -16 -16 0 -28 -4 -28 -9
0 -4 -4 -5 -10 -2 -6 3 -10 -4 -10 -16 0 -22 0 -22 -16 -3 -8 10 -13 13 -9 7
3 -7 1 -13 -5 -13 -6 0 -8 -5 -4 -11 4 -8 0 -8 -15 0 -18 10 -20 9 -14 -5 4
-12 3 -15 -5 -10 -7 4 -12 2 -12 -4 0 -6 -5 -8 -12 -4 -8 5 -9 1 -5 -12 7 -18
6 -18 -9 1 -16 20 -16 20 -9 -2 5 -19 3 -22 -11 -16 -13 5 -16 3 -11 -10 3 -9
3 -16 -1 -16 -29 5 -44 -2 -38 -18 4 -10 4 -14 0 -10 -4 4 -13 2 -21 -4 -10
-9 -13 -8 -13 1 0 8 -3 10 -6 7 -4 -4 -2 -13 4 -20 9 -10 8 -14 -3 -15 -8 -1
-22 -3 -30 -4 -8 -1 -12 -5 -10 -9 7 -11 -6 -39 -17 -39 -6 0 -5 8 3 18 11 14
11 15 -1 5 -8 -7 -15 -21 -16 -30 -2 -10 -7 -19 -12 -21 -5 -1 -18 -9 -28 -17
-18 -15 -18 -15 1 -9 13 4 9 -2 -10 -15 -17 -12 -24 -21 -15 -21 13 0 13 -2 0
-9 -8 -6 -17 -8 -21 -5 -4 2 -11 -1 -15 -7 -4 -7 -3 -9 4 -5 6 3 13 2 17 -4 3
-5 -1 -10 -10 -10 -11 0 -15 -5 -11 -15 3 -9 0 -15 -9 -15 -8 0 -15 -9 -15
-20 0 -11 -5 -19 -11 -17 -11 2 -14 -4 -22 -45 -2 -10 -12 -25 -23 -34 -15
-13 -16 -15 -2 -10 12 3 15 1 11 -10 -3 -8 -11 -13 -18 -10 -8 3 -10 -4 -7
-22 4 -20 2 -24 -11 -19 -14 5 -15 2 -7 -18 6 -17 6 -25 -1 -25 -6 0 -7 -5 -3
-11 3 -6 1 -15 -7 -19 -7 -5 -14 -16 -15 -24 -1 -9 2 -14 7 -10 5 3 6 10 3 16
-5 7 -2 8 6 3 10 -6 9 -12 -7 -25 -15 -12 -18 -21 -12 -33 6 -9 6 -18 0 -21
-5 -3 -7 -16 -3 -28 4 -16 2 -19 -8 -13 -10 6 -11 4 -4 -6 5 -8 9 -32 10 -54
0 -22 -1 -34 -3 -27 -3 6 -8 12 -12 12 -9 0 -8 -46 2 -56 4 -4 7 -12 7 -18 0
-6 -5 -4 -10 4 -8 13 -10 12 -10 -3 0 -10 7 -20 15 -23 8 -4 15 -11 15 -16 0
-6 -6 -5 -15 2 -12 10 -15 10 -15 -3 0 -8 6 -18 13 -20 10 -4 10 -6 0 -6 -7
-1 -13 -8 -13 -17 0 -11 6 -14 18 -10 16 6 16 5 0 -7 -13 -11 -15 -16 -6 -25
9 -9 9 -15 0 -24 -14 -14 -16 -32 -3 -23 5 3 13 1 16 -5 4 -6 1 -9 -6 -8 -6 2
-14 -3 -17 -11 -3 -9 0 -11 9 -6 11 6 12 5 2 -6 -18 -18 -16 -39 5 -55 16 -13
16 -14 -3 -7 -18 6 -18 5 -6 -10 7 -9 9 -17 3 -17 -6 0 -9 -25 -7 -62 2 -35 4
-63 5 -63 1 0 3 -8 5 -18 2 -9 -1 -15 -6 -11 -5 3 -6 10 -3 16 4 7 2 8 -4 4
-12 -7 -5 -36 9 -36 5 0 9 -5 9 -11 0 -5 -4 -7 -10 -4 -17 11 -11 -17 8 -31
14 -12 14 -13 1 -8 -12 4 -17 -1 -18 -20 -3 -48 -4 -53 -17 -53 -7 0 -10 6 -7
12 2 7 -3 15 -11 18 -10 4 -13 13 -9 23 5 13 3 15 -7 9 -10 -6 -12 -4 -7 8 5
13 1 17 -15 17 -17 0 -18 2 -8 15 11 13 10 14 -3 10 -8 -4 -18 -1 -23 6 -5 8
-3 10 6 4 9 -5 11 -4 6 3 -5 8 -13 9 -25 2 -12 -6 -22 -5 -30 3 -10 9 -11 8
-5 -7 5 -13 4 -17 -4 -12 -6 3 -14 1 -18 -5 -4 -8 -3 -9 4 -5 12 7 16 -5 13
-31 -1 -7 2 -13 7 -13 5 0 9 -7 9 -15 0 -8 -3 -13 -5 -10 -3 3 -11 -3 -17 -12
-11 -15 -13 -14 -11 7 1 20 -4 25 -22 24 -18 -1 -21 2 -17 20 5 17 4 18 -4 6
-9 -12 -13 -12 -19 -3 -4 7 -20 14 -34 15 -15 1 -24 6 -22 10 3 4 12 5 22 2 9
-3 4 2 -11 11 -16 9 -34 14 -41 12 -9 -4 -12 3 -11 17 2 13 -2 23 -9 23 -26 1
-42 9 -54 28 -11 17 -12 17 -8 2 3 -11 2 -15 -4 -12 -6 3 -10 13 -10 22 0 10
-6 14 -19 10 -15 -4 -19 0 -16 15 4 16 2 18 -10 8 -12 -10 -15 -9 -15 5 0 14
-3 15 -14 6 -11 -9 -16 -9 -22 0 -4 8 -3 9 4 5 7 -4 12 -2 12 3 0 6 -9 11 -20
11 -11 0 -20 3 -20 8 0 4 -9 13 -21 20 -12 8 -18 9 -15 3 4 -7 1 -8 -8 -5 -9
3 -16 12 -16 20 0 8 -3 13 -7 13 -26 -4 -63 2 -59 10 3 5 -1 12 -10 15 -8 3
-12 2 -9 -4 3 -6 -1 -7 -9 -4 -9 3 -13 11 -10 16 4 6 1 8 -7 6 -8 -3 -31 3
-52 14 -21 11 -37 14 -37 8 0 -6 -5 -8 -10 -5 -6 4 -7 12 -3 18 4 8 1 7 -9 -1
-10 -8 -19 -9 -22 -3 -3 5 -1 12 4 14 6 3 5 4 -2 3 -7 -2 -22 1 -33 6 -19 8
-19 8 -2 -5 27 -23 20 -30 -10 -10 -16 10 -37 18 -48 17 -11 0 -28 7 -38 15
-15 13 -17 13 -12 0 4 -10 -1 -15 -15 -15 -11 0 -20 6 -20 13 0 7 -5 13 -11
13 -5 0 -7 -6 -3 -12 6 -10 5 -10 -7 -1 -12 10 -18 10 -27 1 -9 -9 -12 -9 -12
2 0 13 -2 13 -10 0 -6 -10 -10 -11 -10 -2 0 6 -5 12 -11 12 -6 0 -8 -8 -5 -17
6 -17 5 -17 -8 0 -14 18 -32 24 -21 7 3 -5 1 -10 -4 -10 -6 0 -11 5 -11 12 0
6 -6 3 -14 -8 -14 -18 -15 -18 -21 -1 -4 9 -12 17 -17 17 -6 0 -8 -6 -5 -13 7
-18 -35 -16 -57 2 -14 12 -16 12 -9 -5 6 -17 5 -18 -12 -4 -11 9 -16 10 -11 3
5 -9 -1 -13 -21 -14 -15 -1 -35 -2 -43 -3 -8 -1 -21 3 -28 8 -9 6 -12 5 -10
-4 2 -7 -3 -15 -11 -18 -8 -2 -11 0 -8 5 3 5 0 10 -7 10 -8 0 -12 -6 -9 -14 7
-19 -7 -16 -23 5 -12 16 -13 15 -8 -4 5 -18 1 -20 -30 -18 -19 2 -38 -2 -42
-8 -5 -7 -2 -8 6 -3 8 5 11 4 6 -3 -3 -6 -20 -9 -36 -7 -17 2 -30 -1 -30 -7 0
-6 -9 -8 -21 -5 -14 4 -19 1 -16 -7 3 -7 -5 -13 -20 -14 -35 -3 -48 -13 -32
-23 10 -6 10 -9 2 -9 -6 0 -15 5 -19 11 -4 8 -13 4 -26 -12 -15 -20 -17 -20
-11 -4 5 14 -5 8 -31 -17 -21 -21 -43 -35 -47 -32 -5 3 -9 0 -9 -7 0 -8 -5 -7
-17 2 -15 12 -16 12 -10 -3 3 -10 2 -18 -4 -18 -6 0 -8 -4 -5 -9 3 -4 -6 -7
-20 -5 -18 2 -24 -2 -22 -14 2 -11 -4 -17 -17 -16 -11 0 -27 -8 -35 -17 -8 -9
-22 -18 -30 -22 -11 -4 -10 -6 5 -6 16 -1 17 -3 6 -10 -8 -5 -23 -8 -34 -6
-15 4 -17 2 -7 -10 10 -12 9 -15 -4 -16 -30 -3 -34 -4 -43 -13 -4 -5 -3 -6 4
-2 6 3 14 2 17 -3 7 -11 -22 -24 -35 -16 -5 4 -6 -1 -3 -9 4 -9 -1 -18 -10
-22 -9 -3 -13 -11 -9 -18 4 -6 -2 -4 -12 4 -10 8 -16 10 -12 3 4 -6 2 -15 -4
-18 -5 -4 -8 -14 -4 -22 5 -14 3 -14 -12 -2 -11 9 -14 10 -9 2 4 -7 2 -13 -3
-13 -6 0 -10 -4 -8 -8 1 -4 -12 -22 -30 -39 -17 -17 -29 -34 -26 -37 4 -3 -1
-6 -11 -6 -9 0 -15 -3 -13 -7 4 -9 -29 -44 -36 -37 -2 3 -3 -6 -2 -20 2 -18
-1 -23 -11 -19 -8 3 -11 10 -7 16 3 6 1 7 -6 3 -9 -6 -9 -11 0 -22 10 -13 6
-18 -13 -15 -5 0 -7 -2 -7 -7 4 -21 -2 -32 -13 -26 -7 4 -10 4 -6 -1 4 -4 -2
-21 -13 -36 -14 -21 -16 -29 -7 -29 8 0 6 -5 -5 -11 -15 -9 -16 -13 -6 -25 10
-12 10 -15 -2 -12 -8 2 -15 -7 -17 -19 -2 -13 -9 -23 -15 -23 -8 0 -7 -3 2 -9
11 -7 10 -12 -8 -27 -11 -10 -21 -23 -21 -29 0 -5 5 -3 10 5 5 8 10 11 10 6 0
-5 -7 -18 -16 -27 -9 -10 -18 -31 -21 -46 -2 -16 -5 -38 -7 -51 -1 -12 -9 -28
-16 -35 -10 -10 -11 -9 -5 2 5 8 4 12 -1 8 -5 -3 -9 -21 -8 -40 1 -27 -2 -34
-12 -30 -8 3 -14 1 -14 -5 0 -6 6 -13 13 -15 8 -4 7 -6 -4 -6 -11 -1 -15 -10
-13 -31 1 -18 -4 -33 -13 -39 -8 -4 -16 -22 -16 -39 -1 -16 -6 -28 -11 -24 -5
3 -7 -2 -3 -11 4 -12 2 -14 -11 -10 -14 6 -15 4 -5 -8 7 -9 8 -20 3 -29 -5 -8
-6 -18 -3 -24 4 -5 -1 -7 -10 -3 -10 3 -17 2 -17 -3 0 -6 5 -10 11 -10 6 0 3
-7 -5 -16 -19 -19 -21 -28 -4 -19 7 4 2 -4 -12 -16 -17 -15 -19 -20 -7 -16 21
8 23 -9 1 -17 -9 -3 -14 -15 -12 -28 2 -14 -2 -22 -9 -21 -7 2 -13 -2 -13 -7
0 -6 4 -10 8 -10 4 0 8 -11 8 -24 0 -14 -4 -22 -8 -20 -5 3 -6 9 -3 14 3 5 2
11 -3 14 -5 3 -8 -8 -8 -24 0 -17 2 -28 4 -25 3 3 11 0 19 -6 10 -9 13 -8 13
1 0 10 3 10 16 0 12 -11 15 -11 12 1 -2 8 -7 18 -13 22 -5 5 0 5 13 2 19 -6
22 -3 22 22 0 17 3 23 8 16 6 -9 13 -3 26 17 9 17 21 28 27 25 5 -3 6 0 4 8
-3 7 3 22 15 32 12 11 20 13 20 6 0 -9 4 -8 14 1 8 7 12 16 9 21 -2 4 7 7 21
7 15 0 30 8 36 20 9 17 14 18 32 9 15 -8 19 -8 13 0 -4 8 2 10 19 7 15 -3 24
-1 21 5 -4 5 -1 9 5 9 6 0 8 5 4 12 -4 6 9 1 30 -11 20 -13 40 -21 43 -17 3 3
12 1 19 -5 8 -7 14 -6 20 2 5 8 3 9 -6 4 -9 -6 -11 -4 -6 4 6 9 12 8 26 -4 13
-12 19 -13 22 -4 3 9 8 8 18 -3 13 -13 16 -13 25 -1 10 13 13 12 26 -4 13 -17
13 -17 -6 -3 -14 10 -17 10 -8 0 7 -7 27 -15 45 -17 24 -2 29 0 18 7 -13 8
-12 10 3 10 9 0 17 -4 17 -8 0 -13 44 -12 52 1 5 8 8 8 8 1 0 -13 65 -12 77 1
4 4 3 5 -4 1 -6 -3 -14 -2 -17 3 -7 10 13 9 31 -2 6 -4 15 -2 19 4 5 8 3 9 -6
4 -9 -5 -11 -4 -6 4 4 6 13 8 19 4 17 -11 38 -13 32 -3 -3 5 7 7 22 5 16 -1
36 4 45 12 10 9 25 13 35 9 9 -4 14 -4 10 0 -4 4 -2 13 4 20 8 10 16 11 30 3
15 -7 19 -7 17 3 -2 8 7 13 24 12 23 0 25 2 15 15 -9 11 -9 13 0 8 6 -4 14 -3
17 1 3 5 17 8 31 6 23 -2 24 0 13 14 -11 14 -10 15 5 9 20 -8 61 15 49 27 -4
5 2 6 13 4 13 -2 19 2 17 10 -1 8 2 11 8 7 5 -3 10 -1 10 5 0 6 4 9 9 6 5 -4
12 0 14 6 4 10 6 10 6 1 1 -7 6 -13 12 -13 6 0 9 7 5 15 -3 8 -1 15 4 15 5 0
16 7 24 16 9 9 16 11 16 4 0 -6 5 -8 10 -5 6 4 8 10 5 15 -3 5 -1 11 5 15 5 3
10 0 10 -7 0 -10 3 -9 9 2 6 8 7 19 3 25 -3 5 3 3 13 -5 11 -9 16 -10 11 -2
-4 7 -2 12 8 12 8 0 18 5 22 12 5 7 3 8 -6 3 -8 -5 -11 -4 -6 3 4 6 14 8 23 5
12 -5 15 -2 10 10 -4 12 -1 15 14 12 18 -4 19 -2 7 12 -9 12 -10 15 0 9 16
-10 60 25 54 44 -3 9 2 7 13 -5 9 -11 14 -14 10 -7 -3 6 -1 12 4 12 6 0 10 5
8 11 -1 6 9 18 23 27 20 14 23 14 16 2 -4 -8 0 -6 8 4 9 11 16 23 16 28 0 4 7
4 17 1 10 -4 14 -2 10 4 -7 11 20 28 37 24 5 -1 6 5 3 13 -4 9 -1 18 5 22 7 4
8 3 4 -4 -4 -7 -3 -12 3 -12 5 0 13 9 16 21 5 14 13 19 25 16 13 -3 17 0 15
12 -2 10 3 18 10 18 8 0 12 -5 9 -11 -3 -6 1 -2 10 8 8 10 13 22 11 27 -3 4 5
5 17 1 16 -4 20 -2 15 10 -4 12 -1 14 14 11 13 -4 19 -1 17 7 -2 7 8 14 21 15
13 1 28 9 32 18 6 10 16 14 27 10 15 -6 15 -5 3 11 -12 15 -12 17 0 14 8 -2
17 -7 21 -13 5 -6 8 -3 8 7 0 11 5 15 14 12 14 -5 96 33 96 45 0 4 9 7 20 8
13 1 18 -3 14 -10 -3 -7 0 -5 8 3 7 8 19 15 26 16 29 2 33 5 27 14 -3 6 1 10
9 10 9 0 15 -3 14 -7 -2 -5 2 -9 7 -10 6 -2 10 3 10 9 0 15 37 17 47 3 5 -6 8
-3 8 7 0 9 5 20 12 24 7 4 8 3 4 -4 -4 -7 -1 -12 9 -12 9 0 13 5 10 10 -3 6 1
10 10 10 10 0 14 -5 10 -12 -4 -7 -1 -6 7 2 9 10 28 14 61 12 37 -2 47 1 41
10 -6 10 -4 10 7 2 8 -6 22 -10 31 -9 10 2 21 -1 24 -7 3 -5 14 -2 25 8 15 13
18 14 14 3 -4 -11 2 -14 22 -13 15 0 34 -5 41 -13 8 -7 18 -11 23 -8 8 6 13
-8 10 -27 0 -5 4 -8 10 -8 8 0 8 -4 0 -14 -8 -10 -9 -16 -1 -21 5 -3 10 -1 10
6 0 7 3 9 7 5 5 -4 -1 -14 -12 -23 -19 -14 -19 -14 -1 -11 10 2 21 -3 24 -11
2 -8 0 -11 -5 -8 -5 3 -9 -3 -9 -14 0 -13 5 -18 15 -14 11 5 12 3 1 -10 -10
-12 -11 -18 -1 -28 10 -9 11 -8 6 6 -4 9 -3 17 3 17 14 0 9 -24 -8 -46 -14
-17 -14 -18 3 -5 16 12 17 10 17 -25 0 -57 10 -89 22 -72 7 9 8 7 5 -9 -3 -13
-1 -26 4 -29 5 -3 5 -13 -1 -24 -7 -13 -7 -21 2 -26 7 -5 8 -3 3 7 -8 12 -6
12 8 0 18 -14 23 -26 8 -17 -5 3 -12 -1 -15 -10 -9 -22 -8 -24 12 -24 14 0 15
-2 2 -10 -10 -6 -11 -10 -2 -10 8 0 12 -16 12 -46 0 -32 3 -43 12 -38 7 5 8 3
3 -6 -4 -7 -9 -39 -10 -72 -2 -38 0 -55 6 -47 7 11 9 10 10 -6 5 -64 3 -103
-6 -97 -5 3 -2 -4 8 -15 18 -21 18 -22 -2 -42 -17 -17 -18 -21 -5 -32 12 -10
13 -9 8 7 -5 15 -4 16 4 4 6 -8 8 -19 4 -24 -3 -6 -6 -22 -6 -36 0 -14 -7 -31
-15 -38 -14 -11 -14 -11 -1 -7 11 4 16 -1 17 -15 1 -12 -3 -18 -9 -14 -5 4 -2
-5 7 -20 10 -14 13 -26 8 -26 -5 0 -8 -30 -8 -68 1 -49 -3 -70 -15 -80 -13
-10 -13 -11 0 -7 12 4 15 -5 16 -47 0 -29 -1 -47 -3 -40 -6 17 -20 15 -20 -3
0 -8 4 -15 9 -15 4 0 8 -5 8 -11 0 -5 -4 -7 -10 -4 -5 3 -10 1 -10 -4 0 -6 5
-11 12 -11 6 0 4 -6 -7 -13 -14 -11 -15 -16 -5 -22 9 -5 11 -4 6 3 -4 7 -2 12
3 12 14 0 14 -17 1 -25 -5 -3 -10 -23 -10 -44 0 -20 -6 -43 -12 -50 -10 -11
-10 -13 0 -7 6 4 12 3 12 -3 0 -5 -6 -12 -12 -14 -10 -4 -10 -6 0 -6 7 -1 10
-6 7 -11 -5 -8 -11 -8 -20 0 -9 8 -11 4 -7 -17 3 -16 7 -22 9 -15 3 6 10 12
16 12 6 0 1 -10 -11 -23 -14 -15 -18 -27 -12 -37 5 -8 5 -19 1 -25 -5 -5 -8
-22 -7 -36 1 -18 -3 -25 -11 -22 -7 3 -13 1 -13 -5 0 -6 6 -13 13 -15 9 -4 9
-6 0 -6 -8 -1 -13 -16 -13 -40 0 -22 -7 -46 -15 -55 -20 -19 -19 -27 3 -20 9
3 6 -1 -7 -9 -16 -9 -20 -17 -12 -21 8 -5 4 -14 -11 -27 -13 -12 -18 -18 -11
-15 6 4 14 2 18 -4 3 -6 0 -12 -7 -15 -7 -3 -14 -22 -16 -43 -3 -58 -8 -76
-22 -80 -8 -3 -10 0 -5 8 6 9 4 11 -4 6 -9 -6 -8 -13 6 -29 10 -11 13 -17 7
-14 -7 4 -15 0 -18 -9 -4 -10 -2 -13 6 -8 7 5 8 3 2 -7 -4 -8 -8 -24 -9 -37 0
-12 -6 -27 -14 -31 -9 -6 -14 -35 -15 -97 -3 -104 1 -125 20 -117 9 3 12 0 9
-9 -6 -15 -1 -16 49 -20 14 -1 22 -6 20 -10 -3 -5 -9 -6 -14 -3 -5 3 -11 1
-14 -4 -3 -4 26 -8 64 -7 39 0 70 -3 70 -7 0 -5 5 -5 10 -2 6 4 7 12 3 18 -4
7 0 6 10 -2 15 -12 17 -11 17 3 0 9 5 16 11 16 5 0 7 -6 3 -12 -4 -7 3 -4 16
7 13 11 20 14 15 6 -6 -10 -4 -12 4 -7 7 5 10 14 7 22 -4 10 0 14 12 12 9 -2
16 3 15 9 -2 7 3 13 10 13 8 0 7 4 -3 10 -11 7 -11 10 -2 10 7 0 11 4 7 9 -3
5 0 13 6 17 7 4 9 3 6 -2 -3 -6 -2 -16 2 -23 5 -7 8 6 7 31 -1 27 5 48 14 56
8 8 10 11 4 8 -8 -4 -11 5 -10 23 0 16 4 27 8 25 5 -3 8 0 8 6 0 6 5 8 12 4 7
-5 8 -3 2 7 -13 21 -14 39 -2 39 7 0 6 5 -1 14 -8 10 -8 16 2 25 8 6 18 7 22
3 5 -4 5 -1 1 6 -4 7 -12 10 -17 7 -5 -3 -6 1 -3 9 3 9 10 14 14 11 4 -2 7 13
6 35 -1 22 1 40 4 40 4 0 4 15 2 32 -5 31 -4 32 14 18 18 -14 18 -14 3 5 -18
23 -15 45 7 45 9 0 13 4 9 10 -3 5 -11 8 -18 6 -7 -1 -9 -1 -4 2 4 2 12 13 18
24 9 16 8 19 -3 12 -11 -6 -11 -5 1 9 9 12 10 17 2 17 -7 0 -9 5 -6 10 4 6 11
8 16 5 5 -4 5 4 -1 19 -7 21 -6 26 5 26 8 0 15 5 15 11 0 5 -4 8 -9 4 -5 -3
-13 0 -17 6 -4 7 -3 9 4 5 6 -3 13 -2 17 4 3 5 2 10 -3 10 -5 0 -9 6 -9 14 0
9 6 12 16 8 14 -5 14 -3 2 11 -11 14 -11 17 0 17 12 0 12 2 1 9 -11 7 -11 9 2
14 9 4 16 12 16 19 0 9 -3 8 -10 -2 -9 -13 -10 -13 -10 0 0 9 5 21 11 27 8 8
8 13 0 17 -17 11 -13 26 7 27 14 0 14 2 2 7 -17 8 -25 32 -11 32 5 0 12 -6 14
-12 4 -9 6 -10 6 -1 1 6 -6 18 -14 27 -13 13 -13 15 5 21 24 8 25 18 3 36 -15
12 -16 12 -8 -1 4 -8 4 -12 0 -7 -15 13 -14 38 0 43 8 3 11 12 8 20 -3 8 0 21
6 28 10 11 7 18 -11 30 -15 10 -17 16 -8 16 11 0 15 12 15 39 1 22 -3 38 -7
35 -3 -2 -5 -13 -3 -24 2 -11 0 -22 -4 -24 -14 -9 -6 59 9 72 13 10 13 11 -2
6 -10 -3 -18 -1 -18 5 0 6 8 11 18 12 16 0 16 1 -1 8 -22 8 -24 21 -5 32 10 7
10 9 -2 9 -13 0 -13 1 0 10 10 6 11 10 3 10 -7 0 -13 5 -13 11 0 5 4 8 9 4 5
-3 13 -1 16 5 4 6 1 9 -7 8 -13 -3 -19 34 -18 105 0 20 -3 26 -12 21 -7 -4
-10 -4 -6 1 4 4 3 13 -2 20 -7 8 -5 12 5 12 8 0 11 -5 8 -10 -3 -6 -1 -7 6 -3
8 6 9 12 2 20 -6 7 -8 16 -4 19 3 4 0 14 -7 22 -8 9 -15 42 -16 73 -1 31 -3
59 -5 62 -5 14 -4 76 2 80 4 3 0 14 -8 25 -15 19 -15 19 -9 -5 l6 -25 -12 23
c-9 19 -9 25 3 33 8 5 9 9 3 9 -11 0 -14 15 -14 61 0 15 -7 29 -16 33 -8 3
-12 10 -9 16 3 5 1 10 -6 10 -8 0 -8 4 1 15 8 10 9 15 2 15 -6 0 -9 6 -6 14 3
7 -2 21 -12 30 -9 10 -14 26 -12 41 3 13 2 24 -1 23 -18 -2 -28 4 -28 17 0 8
4 12 8 9 4 -2 11 1 15 7 4 7 3 9 -2 6 -6 -3 -16 -2 -24 4 -11 6 -12 9 -2 9 7
0 10 5 7 10 -4 6 -10 8 -15 5 -4 -3 -6 5 -3 17 4 19 3 20 -6 8 -9 -12 -11 -10
-11 13 0 19 4 26 12 21 7 -4 8 -3 4 5 -4 6 -12 8 -18 5 -8 -5 -9 -1 -5 10 5
14 3 17 -8 13 -8 -4 -17 -1 -21 5 -4 7 -3 8 4 4 7 -4 12 -1 12 9 0 9 -4 14 -9
11 -10 -7 -9 13 2 30 4 7 0 11 -11 10 -13 -1 -18 8 -20 37 -2 20 -8 37 -13 37
-6 0 -8 -4 -5 -8 3 -5 -1 -9 -9 -9 -18 0 -20 13 -2 20 8 4 8 8 2 14 -13 10
-19 47 -7 39 5 -3 8 6 6 20 -1 17 2 24 10 21 7 -3 13 7 14 26 3 38 10 46 23
27 9 -13 10 -12 5 2 -3 10 1 24 9 31 11 11 11 17 2 26 -9 9 -8 11 6 6 10 -4
17 -2 17 4 0 6 6 11 14 11 8 0 17 7 20 16 3 8 11 12 17 8 7 -4 9 -3 5 4 -8 13
5 21 36 24 14 1 25 8 25 15 0 9 -4 10 -14 2 -9 -8 -13 -8 -13 0 0 11 3 12 43
15 12 1 21 8 19 15 -1 7 2 10 8 6 5 -3 10 -1 10 6 0 8 4 8 13 1 10 -9 17 -6
30 8 9 11 26 20 37 20 12 0 20 7 21 18 0 9 3 12 6 5 3 -10 7 -10 18 0 7 7 10
17 7 22 -3 6 3 3 13 -5 15 -12 17 -12 10 -1 -6 11 -4 13 9 8 9 -4 15 -3 12 2
-3 5 1 12 10 15 10 4 13 2 9 -7 -4 -6 2 -2 13 10 l19 22 11 -22 c11 -21 11
-20 7 5 -3 25 -2 27 16 18 15 -9 19 -7 19 7 0 10 4 14 8 8 11 -15 32 -17 32
-2 0 9 11 13 30 12 16 -1 27 2 24 7 -8 13 20 9 35 -4 8 -8 11 -8 8 -2 -8 15
18 38 33 29 5 -3 10 -2 10 2 0 5 16 8 35 7 25 -1 35 2 35 13 0 10 7 14 20 10
11 -3 20 -1 20 3 0 5 9 7 20 5 13 -2 20 2 20 11 0 8 5 14 11 14 5 0 8 -4 4 -9
-3 -5 -1 -13 5 -16 6 -4 9 -1 8 7 -2 8 9 14 30 16 17 2 32 7 32 13 0 5 5 9 11
9 5 0 7 -5 3 -12 -4 -7 -3 -8 5 -4 6 4 9 11 6 16 -3 5 -1 11 5 15 5 3 10 1 10
-5 0 -6 5 -8 10 -5 6 4 8 11 5 16 -3 5 1 6 9 3 10 -4 16 -1 16 7 0 11 3 11 10
-1 8 -13 10 -13 10 1 0 11 9 15 30 14 21 -1 27 2 20 10 -6 7 -2 15 12 24 11 7
17 8 14 2 -4 -5 -1 -13 5 -17 8 -4 9 -3 5 4 -4 7 -2 12 4 12 6 0 8 5 5 10 -4
6 5 10 19 10 16 0 26 6 26 14 0 8 5 18 12 22 7 4 8 3 4 -4 -5 -8 -2 -10 8 -6
9 3 14 11 13 17 -1 7 4 11 11 10 6 -2 12 1 12 7 0 5 7 7 15 4 10 -4 15 0 15
11 0 10 5 15 13 12 8 -3 20 -1 28 5 11 8 11 9 -3 4 -12 -3 -15 -1 -11 9 3 8 9
12 14 9 5 -3 9 -1 9 5 0 6 8 7 18 4 15 -6 16 -5 2 12 -14 17 -13 18 3 12 9 -3
17 -2 17 4 0 6 5 7 12 3 8 -5 9 -2 5 9 -3 9 -3 16 1 16 24 -4 34 3 28 18 -4
10 -4 14 0 10 4 -4 14 -1 22 6 13 10 14 9 7 -2 -5 -10 -4 -12 3 -7 7 4 12 14
12 23 0 9 6 13 14 10 10 -4 13 -1 9 9 -4 10 2 17 16 21 11 3 18 9 15 14 -3 5
0 9 6 9 6 0 8 4 5 10 -4 6 1 7 11 3 11 -4 15 -2 11 4 -4 6 3 13 14 16 12 3 18
10 14 16 -3 6 -1 11 5 11 6 0 9 4 5 9 -3 5 0 13 6 17 8 5 10 3 4 -7 -4 -8 5
-2 20 12 16 16 28 38 28 53 0 14 3 26 8 26 5 0 9 -6 9 -12 0 -10 3 -9 9 1 5 7
6 22 4 32 -4 13 0 19 13 19 17 0 16 1 -2 15 -16 13 -16 14 -1 9 11 -4 17 -1
17 10 0 9 6 16 13 16 8 0 7 3 -3 10 -13 8 -13 11 -1 22 10 10 12 10 7 1 -4 -7
-5 -13 -2 -13 3 0 10 10 17 21 8 17 8 20 -1 14 -8 -5 -11 -3 -8 6 3 8 10 14
16 14 5 0 14 4 19 8 4 5 2 7 -6 5 -10 -2 -16 7 -17 27 -2 21 0 25 6 15 5 -8 6
-18 3 -24 -3 -5 -1 -6 5 -3 5 4 9 18 7 32 -1 14 1 25 6 25 5 0 6 6 3 14 -3 8
2 27 11 43 12 19 12 22 2 10 -14 -17 -15 -17 -13 6 1 17 6 23 16 19 8 -3 12
-2 8 3 -4 4 -2 15 5 23 10 13 9 15 -7 9 -18 -7 -18 -6 -1 19 11 17 12 24 4 18
-12 -6 -12 -5 -1 8 9 12 10 18 2 23 -8 5 -5 12 7 22 10 8 12 12 6 8 -7 -3 -13
-2 -13 3 0 15 26 33 36 24 5 -4 5 -3 1 3 -5 6 -13 11 -18 11 -5 1 -15 2 -21 3
-7 1 -3 6 10 11 13 6 22 15 21 22 -4 34 2 50 16 44 8 -3 14 -2 14 2 -3 18 3
46 8 35 2 -7 9 -13 14 -13 6 0 8 4 5 8 -2 4 -1 14 5 22 6 11 9 12 9 2 0 -7 5
-10 10 -7 6 4 8 10 5 15 -3 5 0 12 6 16 7 4 9 3 6 -3 -4 -6 0 -13 8 -16 9 -4
12 -1 9 7 -5 12 6 15 48 17 16 0 16 1 0 18 -9 9 -29 16 -44 16 -17 -1 -24 3
-21 10 5 15 -39 15 -49 0 -5 -6 -8 -5 -8 3 0 6 -9 12 -20 12 -11 0 -20 6 -20
13 0 8 -3 8 -8 1 -9 -13 -45 -27 -37 -15 7 13 -9 22 -46 26 -19 3 -27 0 -23
-6 4 -6 -5 -3 -20 6 -14 10 -26 13 -26 7 0 -10 -37 -8 -48 3 -3 2 -11 0 -19
-6 -7 -6 -13 -7 -13 -2 0 11 -41 10 -59 -1 -7 -5 -16 -4 -20 1 -7 10 -21 11
-38 0 -7 -5 -13 -4 -13 1 0 5 -7 9 -15 9 -8 0 -15 -4 -15 -8 0 -4 -13 -4 -28
1 -16 4 -36 4 -45 -2 -10 -5 -17 -5 -17 0 0 5 -7 9 -15 9 -8 0 -15 -4 -15 -8
0 -4 -13 -4 -30 1 -19 5 -32 5 -36 -2 -4 -6 -10 -5 -15 3 -5 8 -9 9 -9 3 0 -6
-7 -11 -15 -11 -8 0 -15 5 -15 10 0 5 -8 3 -17 -4 -11 -10 -14 -10 -9 -1 4 6
5 12 2 12 -3 0 -7 -4 -10 -8z m476 -834 c-7 -7 -12 -8 -12 -2 0 6 3 14 7 17 3
4 9 5 12 2 2 -3 -1 -11 -7 -17z m-1692 -542 c0 -3 -4 -8 -10 -11 -5 -3 -10 -1
-10 4 0 6 5 11 10 11 6 0 10 -2 10 -4z m840 -12 c0 -8 -19 -13 -24 -6 -3 5 1
9 9 9 8 0 15 -2 15 -3z m-840 -68 c0 -3 -4 -8 -10 -11 -5 -3 -10 -1 -10 4 0 6
5 11 10 11 6 0 10 -2 10 -4z m410 -86 c0 -5 -5 -10 -11 -10 -5 0 -7 5 -4 10 3
6 8 10 11 10 2 0 4 -4 4 -10z m-1110 -450 c-8 -5 -19 -10 -25 -10 -5 0 -3 5 5
10 8 5 20 10 25 10 6 0 3 -5 -5 -10z m925 -320 c3 -5 1 -10 -4 -10 -6 0 -11 5
-11 10 0 6 2 10 4 10 3 0 8 -4 11 -10z m35 -110 c0 -5 -4 -10 -10 -10 -5 0
-10 5 -10 10 0 6 5 10 10 10 6 0 10 -4 10 -10z m-205 -120 c1 -10 -2 -17 -6
-14 -4 2 -7 13 -6 24 2 23 10 17 12 -10z m-2325 -140 c0 -5 -2 -10 -4 -10 -3
0 -8 5 -11 10 -3 6 -1 10 4 10 6 0 11 -4 11 -10z m485 1 c-9 -8 -36 -10 -30
-2 2 4 11 8 20 8 8 0 13 -3 10 -6z m2139 -540 c3 -5 -2 -15 -12 -22 -15 -13
-16 -12 -4 3 10 13 10 17 0 21 -9 4 -9 6 -1 6 6 1 14 -3 17 -8z m1 -121 c-3
-5 -12 -10 -18 -10 -7 0 -6 4 3 10 19 12 23 12 15 0z"/>
<path d="M4910 4605 c0 -8 4 -15 10 -15 5 0 7 7 4 15 -4 8 -8 15 -10 15 -2 0
-4 -7 -4 -15z"/>
<path d="M3573 4525 c0 -8 4 -12 9 -9 5 3 6 10 3 15 -9 13 -12 11 -12 -6z"/>
<path d="M1010 3179 c0 -5 5 -7 10 -4 6 3 10 8 10 11 0 2 -4 4 -10 4 -5 0 -10
-5 -10 -11z"/>
<path d="M2690 3059 c0 -5 5 -7 10 -4 6 3 10 8 10 11 0 2 -4 4 -10 4 -5 0 -10
-5 -10 -11z"/>
<path d="M340 2321 c0 -6 4 -13 10 -16 6 -3 7 1 4 9 -7 18 -14 21 -14 7z"/>
<path d="M2895 2049 c-4 -6 -5 -12 -2 -15 2 -3 7 2 10 11 7 17 1 20 -8 4z"/>
<path d="M530 1976 c0 -2 7 -9 15 -16 13 -11 14 -10 9 4 -5 14 -24 23 -24 12z"/>
<path d="M2895 1940 c-3 -5 -2 -10 4 -10 5 0 13 5 16 10 3 6 2 10 -4 10 -5 0
-13 -4 -16 -10z"/>
<path d="M3170 1943 c0 -5 5 -15 10 -23 7 -12 9 -10 7 8 -1 19 -17 33 -17 15z"/>
<path d="M326 1882 c-3 -5 1 -9 9 -9 8 0 12 4 9 9 -3 4 -7 8 -9 8 -2 0 -6 -4
-9 -8z"/>
<path d="M2895 1740 c3 -5 8 -10 11 -10 2 0 4 5 4 10 0 6 -5 10 -11 10 -5 0
-7 -4 -4 -10z"/>
<path d="M2895 1660 c3 -5 8 -10 11 -10 2 0 4 5 4 10 0 6 -5 10 -11 10 -5 0
-7 -4 -4 -10z"/>
<path d="M2893 1532 c0 -12 5 -22 9 -22 11 0 10 12 -2 30 -7 12 -9 10 -7 -8z"/>
<path d="M2805 989 c-4 -6 -5 -12 -2 -15 2 -3 7 2 10 11 7 17 1 20 -8 4z"/>
<path d="M2689 508 c-4 -10 -4 -66 1 -62 5 6 9 64 3 64 -2 0 -3 -1 -4 -2z"/>
</g>
</svg>
